<?xml version="1.0" encoding="utf-8"?>
<svg version="1.1" id="Layer_1" xmlns="http://www.w3.org/2000/svg" xmlns:xlink="http://www.w3.org/1999/xlink" x="0px" y="0px"
	 width="34.5px" height="48px" viewBox="0 0 34.5 48" style="enable-background:new 0 0 34.5 48;" xml:space="preserve">
<style type="text/css">
	.st0{fill:#2B3975;}
</style>
<path id="Page-1-Copy" class="st0" d="M9.9,28.7c0.1,0,0.3-0.1,0.4-0.2l8-8c0.1-0.1,0.2-0.3,0.2-0.4s-0.1-0.3-0.2-0.4l-0.9-0.9
	c-0.1-0.1-0.2-0.2-0.4-0.2c-0.1,0-0.3,0.1-0.4,0.2l-6.7,6.7l-6.7-6.7c-0.1-0.1-0.2-0.2-0.4-0.2c-0.2,0-0.3,0.1-0.4,0.2l-0.9,0.9
	c-0.1,0.1-0.2,0.2-0.2,0.4c0,0.1,0.1,0.3,0.2,0.4l8,8C9.6,28.6,9.8,28.7,9.9,28.7L9.9,28.7z"/>
</svg>
