<svg width="40" height="40" viewBox="0 0 40 40" fill="none" xmlns="http://www.w3.org/2000/svg">
<path d="M20 6.87013L18.2081 5.02833C13.9973 0.700167 6.28536 2.19424 3.50089 7.6321C2.19134 10.1896 1.89688 13.8812 4.28573 18.5939C6.58644 23.1328 11.3692 28.5661 20 34.4865C28.6308 28.5661 33.4136 23.1328 35.7143 18.5939C38.1031 13.8812 37.8087 10.1896 36.4991 7.6321C33.7146 2.19424 26.0027 0.700167 21.7919 5.02833L20 6.87013ZM20 37.5C-18.3328 12.171 8.19689 -7.60217 19.5608 2.85771C19.7099 2.99492 19.8563 3.13734 20 3.28501C20.1437 3.13734 20.2901 2.99493 20.4392 2.85773C31.8031 -7.60219 58.3328 12.171 20 37.5Z" fill="#FF9797"/>
</svg>
